<svg width="24" height="24" viewBox="0 0 24 24" fill="none" xmlns="http://www.w3.org/2000/svg">
<path d="M9.97227 3.29006C11.025 2.10507 12.4563 2.29367 13.3722 3.29006L13.9307 3.93673C14.1241 4.14714 14.404 4.25625 14.6888 4.23227L15.6817 3.93673C17.0353 3.64657 18.2652 4.65634 18.2652 6.2247V6.81552C18.2939 7.13804 18.5757 7.35668 18.8666 7.49877L19.7638 7.87363C21.0615 8.50743 21.3858 10.0113 20.4405 11.2735L20.172 11.628C19.9311 11.9537 19.9806 12.3811 20.2203 12.7076L20.4889 13.0836C21.4664 14.2867 20.9152 15.9374 19.5344 16.514L18.7621 16.8366C18.4712 16.9581 18.3572 17.1666 18.3028 17.4771L18.2491 18.4869C18.0611 19.8727 16.8304 20.4986 15.8429 20.3587L14.6666 20.0445C14.3841 20.0045 14.0328 20.0982 13.8448 20.3937L13.4205 20.9737C12.3678 22.1607 10.9469 21.9634 10.2301 21.2691L9.44734 20.3211C9.24238 20.1226 8.98399 19.9532 8.67472 20.0699L7.49082 20.3937C6.51342 20.5321 5.36252 19.7807 5.17831 18.8109L5.0416 17.4073C4.98612 17.1152 4.79348 16.8676 4.52396 16.742L3.69347 16.4566C2.4446 15.8747 2.02631 14.4657 2.74338 13.2892L3.21147 12.6419C3.39948 12.3334 3.39054 11.9437 3.18858 11.6441L2.83946 11.15C1.8512 9.74277 2.53448 8.16988 3.99893 7.69833L4.32192 7.59433C4.67841 7.47955 5.02276 7.18349 5.05239 6.81015L5.12431 5.90386C5.24105 4.43278 6.58341 3.58866 7.9953 4.01788L8.45225 4.1568C8.89268 4.32867 9.23774 4.1823 9.47813 3.92047L9.97227 3.29006Z" fill="url(#paint0_linear_7155_2965)"/>
<path d="M9.97227 3.29006C11.025 2.10507 12.4563 2.29367 13.3722 3.29006L13.9307 3.93673C14.1241 4.14714 14.404 4.25625 14.6888 4.23227L15.6817 3.93673C17.0353 3.64657 18.2652 4.65634 18.2652 6.2247V6.81552C18.2939 7.13804 18.5757 7.35668 18.8666 7.49877L19.7638 7.87363C21.0615 8.50743 21.3858 10.0113 20.4405 11.2735L20.172 11.628C19.9311 11.9537 19.9806 12.3811 20.2203 12.7076L20.4889 13.0836C21.4664 14.2867 20.9152 15.9374 19.5344 16.514L18.7621 16.8366C18.4712 16.9581 18.3572 17.1666 18.3028 17.4771L18.2491 18.4869C18.0611 19.8727 16.8304 20.4986 15.8429 20.3587L14.6666 20.0445C14.3841 20.0045 14.0328 20.0982 13.8448 20.3937L13.4205 20.9737C12.3678 22.1607 10.9469 21.9634 10.2301 21.2691L9.44734 20.3211C9.24238 20.1226 8.98399 19.9532 8.67472 20.0699L7.49082 20.3937C6.51342 20.5321 5.36252 19.7807 5.17831 18.8109L5.0416 17.4073C4.98612 17.1152 4.79348 16.8676 4.52396 16.742L3.69347 16.4566C2.4446 15.8747 2.02631 14.4657 2.74338 13.2892L3.21147 12.6419C3.39948 12.3334 3.39054 11.9437 3.18858 11.6441L2.83946 11.15C1.8512 9.74277 2.53448 8.16988 3.99893 7.69833L4.32192 7.59433C4.67841 7.47955 5.02276 7.18349 5.05239 6.81015L5.12431 5.90386C5.24105 4.43278 6.58341 3.58866 7.9953 4.01788L8.45225 4.1568C8.89268 4.32867 9.23774 4.1823 9.47813 3.92047L9.97227 3.29006Z" fill="url(#paint1_radial_7155_2965)"/>
<path d="M9.97227 3.29006C11.025 2.10507 12.4563 2.29367 13.3722 3.29006L13.9307 3.93673C14.1241 4.14714 14.404 4.25625 14.6888 4.23227L15.6817 3.93673C17.0353 3.64657 18.2652 4.65634 18.2652 6.2247V6.81552C18.2939 7.13804 18.5757 7.35668 18.8666 7.49877L19.7638 7.87363C21.0615 8.50743 21.3858 10.0113 20.4405 11.2735L20.172 11.628C19.9311 11.9537 19.9806 12.3811 20.2203 12.7076L20.4889 13.0836C21.4664 14.2867 20.9152 15.9374 19.5344 16.514L18.7621 16.8366C18.4712 16.9581 18.3572 17.1666 18.3028 17.4771L18.2491 18.4869C18.0611 19.8727 16.8304 20.4986 15.8429 20.3587L14.6666 20.0445C14.3841 20.0045 14.0328 20.0982 13.8448 20.3937L13.4205 20.9737C12.3678 22.1607 10.9469 21.9634 10.2301 21.2691L9.44734 20.3211C9.24238 20.1226 8.98399 19.9532 8.67472 20.0699L7.49082 20.3937C6.51342 20.5321 5.36252 19.7807 5.17831 18.8109L5.0416 17.4073C4.98612 17.1152 4.79348 16.8676 4.52396 16.742L3.69347 16.4566C2.4446 15.8747 2.02631 14.4657 2.74338 13.2892L3.21147 12.6419C3.39948 12.3334 3.39054 11.9437 3.18858 11.6441L2.83946 11.15C1.8512 9.74277 2.53448 8.16988 3.99893 7.69833L4.32192 7.59433C4.67841 7.47955 5.02276 7.18349 5.05239 6.81015L5.12431 5.90386C5.24105 4.43278 6.58341 3.58866 7.9953 4.01788L8.45225 4.1568C8.89268 4.32867 9.23774 4.1823 9.47813 3.92047L9.97227 3.29006Z" fill="url(#paint2_radial_7155_2965)"/>
<path d="M9.97227 3.29006C11.025 2.10507 12.4563 2.29367 13.3722 3.29006L13.9307 3.93673C14.1241 4.14714 14.404 4.25625 14.6888 4.23227L15.6817 3.93673C17.0353 3.64657 18.2652 4.65634 18.2652 6.2247V6.81552C18.2939 7.13804 18.5757 7.35668 18.8666 7.49877L19.7638 7.87363C21.0615 8.50743 21.3858 10.0113 20.4405 11.2735L20.172 11.628C19.9311 11.9537 19.9806 12.3811 20.2203 12.7076L20.4889 13.0836C21.4664 14.2867 20.9152 15.9374 19.5344 16.514L18.7621 16.8366C18.4712 16.9581 18.3572 17.1666 18.3028 17.4771L18.2491 18.4869C18.0611 19.8727 16.8304 20.4986 15.8429 20.3587L14.6666 20.0445C14.3841 20.0045 14.0328 20.0982 13.8448 20.3937L13.4205 20.9737C12.3678 22.1607 10.9469 21.9634 10.2301 21.2691L9.44734 20.3211C9.24238 20.1226 8.98399 19.9532 8.67472 20.0699L7.49082 20.3937C6.51342 20.5321 5.36252 19.7807 5.17831 18.8109L5.0416 17.4073C4.98612 17.1152 4.79348 16.8676 4.52396 16.742L3.69347 16.4566C2.4446 15.8747 2.02631 14.4657 2.74338 13.2892L3.21147 12.6419C3.39948 12.3334 3.39054 11.9437 3.18858 11.6441L2.83946 11.15C1.8512 9.74277 2.53448 8.16988 3.99893 7.69833L4.32192 7.59433C4.67841 7.47955 5.02276 7.18349 5.05239 6.81015L5.12431 5.90386C5.24105 4.43278 6.58341 3.58866 7.9953 4.01788L8.45225 4.1568C8.89268 4.32867 9.23774 4.1823 9.47813 3.92047L9.97227 3.29006Z" fill="url(#paint3_radial_7155_2965)"/>
<path d="M9.97227 3.29006C11.025 2.10507 12.4563 2.29367 13.3722 3.29006L13.9307 3.93673C14.1241 4.14714 14.404 4.25625 14.6888 4.23227L15.6817 3.93673C17.0353 3.64657 18.2652 4.65634 18.2652 6.2247V6.81552C18.2939 7.13804 18.5757 7.35668 18.8666 7.49877L19.7638 7.87363C21.0615 8.50743 21.3858 10.0113 20.4405 11.2735L20.172 11.628C19.9311 11.9537 19.9806 12.3811 20.2203 12.7076L20.4889 13.0836C21.4664 14.2867 20.9152 15.9374 19.5344 16.514L18.7621 16.8366C18.4712 16.9581 18.3572 17.1666 18.3028 17.4771L18.2491 18.4869C18.0611 19.8727 16.8304 20.4986 15.8429 20.3587L14.6666 20.0445C14.3841 20.0045 14.0328 20.0982 13.8448 20.3937L13.4205 20.9737C12.3678 22.1607 10.9469 21.9634 10.2301 21.2691L9.44734 20.3211C9.24238 20.1226 8.98399 19.9532 8.67472 20.0699L7.49082 20.3937C6.51342 20.5321 5.36252 19.7807 5.17831 18.8109L5.0416 17.4073C4.98612 17.1152 4.79348 16.8676 4.52396 16.742L3.69347 16.4566C2.4446 15.8747 2.02631 14.4657 2.74338 13.2892L3.21147 12.6419C3.39948 12.3334 3.39054 11.9437 3.18858 11.6441L2.83946 11.15C1.8512 9.74277 2.53448 8.16988 3.99893 7.69833L4.32192 7.59433C4.67841 7.47955 5.02276 7.18349 5.05239 6.81015L5.12431 5.90386C5.24105 4.43278 6.58341 3.58866 7.9953 4.01788L8.45225 4.1568C8.89268 4.32867 9.23774 4.1823 9.47813 3.92047L9.97227 3.29006Z" fill="url(#paint4_radial_7155_2965)"/>
<path d="M9.97227 3.29006C11.025 2.10507 12.4563 2.29367 13.3722 3.29006L13.9307 3.93673C14.1241 4.14714 14.404 4.25625 14.6888 4.23227L15.6817 3.93673C17.0353 3.64657 18.2652 4.65634 18.2652 6.2247V6.81552C18.2939 7.13804 18.5757 7.35668 18.8666 7.49877L19.7638 7.87363C21.0615 8.50743 21.3858 10.0113 20.4405 11.2735L20.172 11.628C19.9311 11.9537 19.9806 12.3811 20.2203 12.7076L20.4889 13.0836C21.4664 14.2867 20.9152 15.9374 19.5344 16.514L18.7621 16.8366C18.4712 16.9581 18.3572 17.1666 18.3028 17.4771L18.2491 18.4869C18.0611 19.8727 16.8304 20.4986 15.8429 20.3587L14.6666 20.0445C14.3841 20.0045 14.0328 20.0982 13.8448 20.3937L13.4205 20.9737C12.3678 22.1607 10.9469 21.9634 10.2301 21.2691L9.44734 20.3211C9.24238 20.1226 8.98399 19.9532 8.67472 20.0699L7.49082 20.3937C6.51342 20.5321 5.36252 19.7807 5.17831 18.8109L5.0416 17.4073C4.98612 17.1152 4.79348 16.8676 4.52396 16.742L3.69347 16.4566C2.4446 15.8747 2.02631 14.4657 2.74338 13.2892L3.21147 12.6419C3.39948 12.3334 3.39054 11.9437 3.18858 11.6441L2.83946 11.15C1.8512 9.74277 2.53448 8.16988 3.99893 7.69833L4.32192 7.59433C4.67841 7.47955 5.02276 7.18349 5.05239 6.81015L5.12431 5.90386C5.24105 4.43278 6.58341 3.58866 7.9953 4.01788L8.45225 4.1568C8.89268 4.32867 9.23774 4.1823 9.47813 3.92047L9.97227 3.29006Z" fill="url(#paint5_radial_7155_2965)"/>
<path d="M9.97227 3.29006C11.025 2.10507 12.4563 2.29367 13.3722 3.29006L13.9307 3.93673C14.1241 4.14714 14.404 4.25625 14.6888 4.23227L15.6817 3.93673C17.0353 3.64657 18.2652 4.65634 18.2652 6.2247V6.81552C18.2939 7.13804 18.5757 7.35668 18.8666 7.49877L19.7638 7.87363C21.0615 8.50743 21.3858 10.0113 20.4405 11.2735L20.172 11.628C19.9311 11.9537 19.9806 12.3811 20.2203 12.7076L20.4889 13.0836C21.4664 14.2867 20.9152 15.9374 19.5344 16.514L18.7621 16.8366C18.4712 16.9581 18.3572 17.1666 18.3028 17.4771L18.2491 18.4869C18.0611 19.8727 16.8304 20.4986 15.8429 20.3587L14.6666 20.0445C14.3841 20.0045 14.0328 20.0982 13.8448 20.3937L13.4205 20.9737C12.3678 22.1607 10.9469 21.9634 10.2301 21.2691L9.44734 20.3211C9.24238 20.1226 8.98399 19.9532 8.67472 20.0699L7.49082 20.3937C6.51342 20.5321 5.36252 19.7807 5.17831 18.8109L5.0416 17.4073C4.98612 17.1152 4.79348 16.8676 4.52396 16.742L3.69347 16.4566C2.4446 15.8747 2.02631 14.4657 2.74338 13.2892L3.21147 12.6419C3.39948 12.3334 3.39054 11.9437 3.18858 11.6441L2.83946 11.15C1.8512 9.74277 2.53448 8.16988 3.99893 7.69833L4.32192 7.59433C4.67841 7.47955 5.02276 7.18349 5.05239 6.81015L5.12431 5.90386C5.24105 4.43278 6.58341 3.58866 7.9953 4.01788L8.45225 4.1568C8.89268 4.32867 9.23774 4.1823 9.47813 3.92047L9.97227 3.29006Z" fill="url(#paint6_radial_7155_2965)" fill-opacity="0.6"/>
<path d="M9.97227 3.29006C11.025 2.10507 12.4563 2.29367 13.3722 3.29006L13.9307 3.93673C14.1241 4.14714 14.404 4.25625 14.6888 4.23227L15.6817 3.93673C17.0353 3.64657 18.2652 4.65634 18.2652 6.2247V6.81552C18.2939 7.13804 18.5757 7.35668 18.8666 7.49877L19.7638 7.87363C21.0615 8.50743 21.3858 10.0113 20.4405 11.2735L20.172 11.628C19.9311 11.9537 19.9806 12.3811 20.2203 12.7076L20.4889 13.0836C21.4664 14.2867 20.9152 15.9374 19.5344 16.514L18.7621 16.8366C18.4712 16.9581 18.3572 17.1666 18.3028 17.4771L18.2491 18.4869C18.0611 19.8727 16.8304 20.4986 15.8429 20.3587L14.6666 20.0445C14.3841 20.0045 14.0328 20.0982 13.8448 20.3937L13.4205 20.9737C12.3678 22.1607 10.9469 21.9634 10.2301 21.2691L9.44734 20.3211C9.24238 20.1226 8.98399 19.9532 8.67472 20.0699L7.49082 20.3937C6.51342 20.5321 5.36252 19.7807 5.17831 18.8109L5.0416 17.4073C4.98612 17.1152 4.79348 16.8676 4.52396 16.742L3.69347 16.4566C2.4446 15.8747 2.02631 14.4657 2.74338 13.2892L3.21147 12.6419C3.39948 12.3334 3.39054 11.9437 3.18858 11.6441L2.83946 11.15C1.8512 9.74277 2.53448 8.16988 3.99893 7.69833L4.32192 7.59433C4.67841 7.47955 5.02276 7.18349 5.05239 6.81015L5.12431 5.90386C5.24105 4.43278 6.58341 3.58866 7.9953 4.01788L8.45225 4.1568C8.89268 4.32867 9.23774 4.1823 9.47813 3.92047L9.97227 3.29006Z" fill="url(#paint7_radial_7155_2965)" fill-opacity="0.7"/>
<path d="M9.97227 3.29006C11.025 2.10507 12.4563 2.29367 13.3722 3.29006L13.9307 3.93673C14.1241 4.14714 14.404 4.25625 14.6888 4.23227L15.6817 3.93673C17.0353 3.64657 18.2652 4.65634 18.2652 6.2247V6.81552C18.2939 7.13804 18.5757 7.35668 18.8666 7.49877L19.7638 7.87363C21.0615 8.50743 21.3858 10.0113 20.4405 11.2735L20.172 11.628C19.9311 11.9537 19.9806 12.3811 20.2203 12.7076L20.4889 13.0836C21.4664 14.2867 20.9152 15.9374 19.5344 16.514L18.7621 16.8366C18.4712 16.9581 18.3572 17.1666 18.3028 17.4771L18.2491 18.4869C18.0611 19.8727 16.8304 20.4986 15.8429 20.3587L14.6666 20.0445C14.3841 20.0045 14.0328 20.0982 13.8448 20.3937L13.4205 20.9737C12.3678 22.1607 10.9469 21.9634 10.2301 21.2691L9.44734 20.3211C9.24238 20.1226 8.98399 19.9532 8.67472 20.0699L7.49082 20.3937C6.51342 20.5321 5.36252 19.7807 5.17831 18.8109L5.0416 17.4073C4.98612 17.1152 4.79348 16.8676 4.52396 16.742L3.69347 16.4566C2.4446 15.8747 2.02631 14.4657 2.74338 13.2892L3.21147 12.6419C3.39948 12.3334 3.39054 11.9437 3.18858 11.6441L2.83946 11.15C1.8512 9.74277 2.53448 8.16988 3.99893 7.69833L4.32192 7.59433C4.67841 7.47955 5.02276 7.18349 5.05239 6.81015L5.12431 5.90386C5.24105 4.43278 6.58341 3.58866 7.9953 4.01788L8.45225 4.1568C8.89268 4.32867 9.23774 4.1823 9.47813 3.92047L9.97227 3.29006Z" fill="url(#paint8_radial_7155_2965)" fill-opacity="0.7"/>
<path d="M9.97227 3.29006C11.025 2.10507 12.4563 2.29367 13.3722 3.29006L13.9307 3.93673C14.1241 4.14714 14.404 4.25625 14.6888 4.23227L15.6817 3.93673C17.0353 3.64657 18.2652 4.65634 18.2652 6.2247V6.81552C18.2939 7.13804 18.5757 7.35668 18.8666 7.49877L19.7638 7.87363C21.0615 8.50743 21.3858 10.0113 20.4405 11.2735L20.172 11.628C19.9311 11.9537 19.9806 12.3811 20.2203 12.7076L20.4889 13.0836C21.4664 14.2867 20.9152 15.9374 19.5344 16.514L18.7621 16.8366C18.4712 16.9581 18.3572 17.1666 18.3028 17.4771L18.2491 18.4869C18.0611 19.8727 16.8304 20.4986 15.8429 20.3587L14.6666 20.0445C14.3841 20.0045 14.0328 20.0982 13.8448 20.3937L13.4205 20.9737C12.3678 22.1607 10.9469 21.9634 10.2301 21.2691L9.44734 20.3211C9.24238 20.1226 8.98399 19.9532 8.67472 20.0699L7.49082 20.3937C6.51342 20.5321 5.36252 19.7807 5.17831 18.8109L5.0416 17.4073C4.98612 17.1152 4.79348 16.8676 4.52396 16.742L3.69347 16.4566C2.4446 15.8747 2.02631 14.4657 2.74338 13.2892L3.21147 12.6419C3.39948 12.3334 3.39054 11.9437 3.18858 11.6441L2.83946 11.15C1.8512 9.74277 2.53448 8.16988 3.99893 7.69833L4.32192 7.59433C4.67841 7.47955 5.02276 7.18349 5.05239 6.81015L5.12431 5.90386C5.24105 4.43278 6.58341 3.58866 7.9953 4.01788L8.45225 4.1568C8.89268 4.32867 9.23774 4.1823 9.47813 3.92047L9.97227 3.29006Z" fill="url(#paint9_radial_7155_2965)"/>
<path d="M9.97227 3.29006C11.025 2.10507 12.4563 2.29367 13.3722 3.29006L13.9307 3.93673C14.1241 4.14714 14.404 4.25625 14.6888 4.23227L15.6817 3.93673C17.0353 3.64657 18.2652 4.65634 18.2652 6.2247V6.81552C18.2939 7.13804 18.5757 7.35668 18.8666 7.49877L19.7638 7.87363C21.0615 8.50743 21.3858 10.0113 20.4405 11.2735L20.172 11.628C19.9311 11.9537 19.9806 12.3811 20.2203 12.7076L20.4889 13.0836C21.4664 14.2867 20.9152 15.9374 19.5344 16.514L18.7621 16.8366C18.4712 16.9581 18.3572 17.1666 18.3028 17.4771L18.2491 18.4869C18.0611 19.8727 16.8304 20.4986 15.8429 20.3587L14.6666 20.0445C14.3841 20.0045 14.0328 20.0982 13.8448 20.3937L13.4205 20.9737C12.3678 22.1607 10.9469 21.9634 10.2301 21.2691L9.44734 20.3211C9.24238 20.1226 8.98399 19.9532 8.67472 20.0699L7.49082 20.3937C6.51342 20.5321 5.36252 19.7807 5.17831 18.8109L5.0416 17.4073C4.98612 17.1152 4.79348 16.8676 4.52396 16.742L3.69347 16.4566C2.4446 15.8747 2.02631 14.4657 2.74338 13.2892L3.21147 12.6419C3.39948 12.3334 3.39054 11.9437 3.18858 11.6441L2.83946 11.15C1.8512 9.74277 2.53448 8.16988 3.99893 7.69833L4.32192 7.59433C4.67841 7.47955 5.02276 7.18349 5.05239 6.81015L5.12431 5.90386C5.24105 4.43278 6.58341 3.58866 7.9953 4.01788L8.45225 4.1568C8.89268 4.32867 9.23774 4.1823 9.47813 3.92047L9.97227 3.29006Z" fill="url(#paint10_radial_7155_2965)" fill-opacity="0.7"/>
<path d="M9.97227 3.29006C11.025 2.10507 12.4563 2.29367 13.3722 3.29006L13.9307 3.93673C14.1241 4.14714 14.404 4.25625 14.6888 4.23227L15.6817 3.93673C17.0353 3.64657 18.2652 4.65634 18.2652 6.2247V6.81552C18.2939 7.13804 18.5757 7.35668 18.8666 7.49877L19.7638 7.87363C21.0615 8.50743 21.3858 10.0113 20.4405 11.2735L20.172 11.628C19.9311 11.9537 19.9806 12.3811 20.2203 12.7076L20.4889 13.0836C21.4664 14.2867 20.9152 15.9374 19.5344 16.514L18.7621 16.8366C18.4712 16.9581 18.3572 17.1666 18.3028 17.4771L18.2491 18.4869C18.0611 19.8727 16.8304 20.4986 15.8429 20.3587L14.6666 20.0445C14.3841 20.0045 14.0328 20.0982 13.8448 20.3937L13.4205 20.9737C12.3678 22.1607 10.9469 21.9634 10.2301 21.2691L9.44734 20.3211C9.24238 20.1226 8.98399 19.9532 8.67472 20.0699L7.49082 20.3937C6.51342 20.5321 5.36252 19.7807 5.17831 18.8109L5.0416 17.4073C4.98612 17.1152 4.79348 16.8676 4.52396 16.742L3.69347 16.4566C2.4446 15.8747 2.02631 14.4657 2.74338 13.2892L3.21147 12.6419C3.39948 12.3334 3.39054 11.9437 3.18858 11.6441L2.83946 11.15C1.8512 9.74277 2.53448 8.16988 3.99893 7.69833L4.32192 7.59433C4.67841 7.47955 5.02276 7.18349 5.05239 6.81015L5.12431 5.90386C5.24105 4.43278 6.58341 3.58866 7.9953 4.01788L8.45225 4.1568C8.89268 4.32867 9.23774 4.1823 9.47813 3.92047L9.97227 3.29006Z" fill="url(#paint11_radial_7155_2965)" fill-opacity="0.7"/>
<path d="M9.97227 3.29006C11.025 2.10507 12.4563 2.29367 13.3722 3.29006L13.9307 3.93673C14.1241 4.14714 14.404 4.25625 14.6888 4.23227L15.6817 3.93673C17.0353 3.64657 18.2652 4.65634 18.2652 6.2247V6.81552C18.2939 7.13804 18.5757 7.35668 18.8666 7.49877L19.7638 7.87363C21.0615 8.50743 21.3858 10.0113 20.4405 11.2735L20.172 11.628C19.9311 11.9537 19.9806 12.3811 20.2203 12.7076L20.4889 13.0836C21.4664 14.2867 20.9152 15.9374 19.5344 16.514L18.7621 16.8366C18.4712 16.9581 18.3572 17.1666 18.3028 17.4771L18.2491 18.4869C18.0611 19.8727 16.8304 20.4986 15.8429 20.3587L14.6666 20.0445C14.3841 20.0045 14.0328 20.0982 13.8448 20.3937L13.4205 20.9737C12.3678 22.1607 10.9469 21.9634 10.2301 21.2691L9.44734 20.3211C9.24238 20.1226 8.98399 19.9532 8.67472 20.0699L7.49082 20.3937C6.51342 20.5321 5.36252 19.7807 5.17831 18.8109L5.0416 17.4073C4.98612 17.1152 4.79348 16.8676 4.52396 16.742L3.69347 16.4566C2.4446 15.8747 2.02631 14.4657 2.74338 13.2892L3.21147 12.6419C3.39948 12.3334 3.39054 11.9437 3.18858 11.6441L2.83946 11.15C1.8512 9.74277 2.53448 8.16988 3.99893 7.69833L4.32192 7.59433C4.67841 7.47955 5.02276 7.18349 5.05239 6.81015L5.12431 5.90386C5.24105 4.43278 6.58341 3.58866 7.9953 4.01788L8.45225 4.1568C8.89268 4.32867 9.23774 4.1823 9.47813 3.92047L9.97227 3.29006Z" fill="url(#paint12_radial_7155_2965)"/>
<path d="M9.97227 3.29006C11.025 2.10507 12.4563 2.29367 13.3722 3.29006L13.9307 3.93673C14.1241 4.14714 14.404 4.25625 14.6888 4.23227L15.6817 3.93673C17.0353 3.64657 18.2652 4.65634 18.2652 6.2247V6.81552C18.2939 7.13804 18.5757 7.35668 18.8666 7.49877L19.7638 7.87363C21.0615 8.50743 21.3858 10.0113 20.4405 11.2735L20.172 11.628C19.9311 11.9537 19.9806 12.3811 20.2203 12.7076L20.4889 13.0836C21.4664 14.2867 20.9152 15.9374 19.5344 16.514L18.7621 16.8366C18.4712 16.9581 18.3572 17.1666 18.3028 17.4771L18.2491 18.4869C18.0611 19.8727 16.8304 20.4986 15.8429 20.3587L14.6666 20.0445C14.3841 20.0045 14.0328 20.0982 13.8448 20.3937L13.4205 20.9737C12.3678 22.1607 10.9469 21.9634 10.2301 21.2691L9.44734 20.3211C9.24238 20.1226 8.98399 19.9532 8.67472 20.0699L7.49082 20.3937C6.51342 20.5321 5.36252 19.7807 5.17831 18.8109L5.0416 17.4073C4.98612 17.1152 4.79348 16.8676 4.52396 16.742L3.69347 16.4566C2.4446 15.8747 2.02631 14.4657 2.74338 13.2892L3.21147 12.6419C3.39948 12.3334 3.39054 11.9437 3.18858 11.6441L2.83946 11.15C1.8512 9.74277 2.53448 8.16988 3.99893 7.69833L4.32192 7.59433C4.67841 7.47955 5.02276 7.18349 5.05239 6.81015L5.12431 5.90386C5.24105 4.43278 6.58341 3.58866 7.9953 4.01788L8.45225 4.1568C8.89268 4.32867 9.23774 4.1823 9.47813 3.92047L9.97227 3.29006Z" fill="url(#paint13_radial_7155_2965)"/>
<path d="M9.97227 3.29006C11.025 2.10507 12.4563 2.29367 13.3722 3.29006L13.9307 3.93673C14.1241 4.14714 14.404 4.25625 14.6888 4.23227L15.6817 3.93673C17.0353 3.64657 18.2652 4.65634 18.2652 6.2247V6.81552C18.2939 7.13804 18.5757 7.35668 18.8666 7.49877L19.7638 7.87363C21.0615 8.50743 21.3858 10.0113 20.4405 11.2735L20.172 11.628C19.9311 11.9537 19.9806 12.3811 20.2203 12.7076L20.4889 13.0836C21.4664 14.2867 20.9152 15.9374 19.5344 16.514L18.7621 16.8366C18.4712 16.9581 18.3572 17.1666 18.3028 17.4771L18.2491 18.4869C18.0611 19.8727 16.8304 20.4986 15.8429 20.3587L14.6666 20.0445C14.3841 20.0045 14.0328 20.0982 13.8448 20.3937L13.4205 20.9737C12.3678 22.1607 10.9469 21.9634 10.2301 21.2691L9.44734 20.3211C9.24238 20.1226 8.98399 19.9532 8.67472 20.0699L7.49082 20.3937C6.51342 20.5321 5.36252 19.7807 5.17831 18.8109L5.0416 17.4073C4.98612 17.1152 4.79348 16.8676 4.52396 16.742L3.69347 16.4566C2.4446 15.8747 2.02631 14.4657 2.74338 13.2892L3.21147 12.6419C3.39948 12.3334 3.39054 11.9437 3.18858 11.6441L2.83946 11.15C1.8512 9.74277 2.53448 8.16988 3.99893 7.69833L4.32192 7.59433C4.67841 7.47955 5.02276 7.18349 5.05239 6.81015L5.12431 5.90386C5.24105 4.43278 6.58341 3.58866 7.9953 4.01788L8.45225 4.1568C8.89268 4.32867 9.23774 4.1823 9.47813 3.92047L9.97227 3.29006Z" fill="url(#paint14_radial_7155_2965)"/>
<path d="M9.97227 3.29006C11.025 2.10507 12.4563 2.29367 13.3722 3.29006L13.9307 3.93673C14.1241 4.14714 14.404 4.25625 14.6888 4.23227L15.6817 3.93673C17.0353 3.64657 18.2652 4.65634 18.2652 6.2247V6.81552C18.2939 7.13804 18.5757 7.35668 18.8666 7.49877L19.7638 7.87363C21.0615 8.50743 21.3858 10.0113 20.4405 11.2735L20.172 11.628C19.9311 11.9537 19.9806 12.3811 20.2203 12.7076L20.4889 13.0836C21.4664 14.2867 20.9152 15.9374 19.5344 16.514L18.7621 16.8366C18.4712 16.9581 18.3572 17.1666 18.3028 17.4771L18.2491 18.4869C18.0611 19.8727 16.8304 20.4986 15.8429 20.3587L14.6666 20.0445C14.3841 20.0045 14.0328 20.0982 13.8448 20.3937L13.4205 20.9737C12.3678 22.1607 10.9469 21.9634 10.2301 21.2691L9.44734 20.3211C9.24238 20.1226 8.98399 19.9532 8.67472 20.0699L7.49082 20.3937C6.51342 20.5321 5.36252 19.7807 5.17831 18.8109L5.0416 17.4073C4.98612 17.1152 4.79348 16.8676 4.52396 16.742L3.69347 16.4566C2.4446 15.8747 2.02631 14.4657 2.74338 13.2892L3.21147 12.6419C3.39948 12.3334 3.39054 11.9437 3.18858 11.6441L2.83946 11.15C1.8512 9.74277 2.53448 8.16988 3.99893 7.69833L4.32192 7.59433C4.67841 7.47955 5.02276 7.18349 5.05239 6.81015L5.12431 5.90386C5.24105 4.43278 6.58341 3.58866 7.9953 4.01788L8.45225 4.1568C8.89268 4.32867 9.23774 4.1823 9.47813 3.92047L9.97227 3.29006Z" fill="url(#paint15_radial_7155_2965)"/>
<path d="M9.97227 3.29006C11.025 2.10507 12.4563 2.29367 13.3722 3.29006L13.9307 3.93673C14.1241 4.14714 14.404 4.25625 14.6888 4.23227L15.6817 3.93673C17.0353 3.64657 18.2652 4.65634 18.2652 6.2247V6.81552C18.2939 7.13804 18.5757 7.35668 18.8666 7.49877L19.7638 7.87363C21.0615 8.50743 21.3858 10.0113 20.4405 11.2735L20.172 11.628C19.9311 11.9537 19.9806 12.3811 20.2203 12.7076L20.4889 13.0836C21.4664 14.2867 20.9152 15.9374 19.5344 16.514L18.7621 16.8366C18.4712 16.9581 18.3572 17.1666 18.3028 17.4771L18.2491 18.4869C18.0611 19.8727 16.8304 20.4986 15.8429 20.3587L14.6666 20.0445C14.3841 20.0045 14.0328 20.0982 13.8448 20.3937L13.4205 20.9737C12.3678 22.1607 10.9469 21.9634 10.2301 21.2691L9.44734 20.3211C9.24238 20.1226 8.98399 19.9532 8.67472 20.0699L7.49082 20.3937C6.51342 20.5321 5.36252 19.7807 5.17831 18.8109L5.0416 17.4073C4.98612 17.1152 4.79348 16.8676 4.52396 16.742L3.69347 16.4566C2.4446 15.8747 2.02631 14.4657 2.74338 13.2892L3.21147 12.6419C3.39948 12.3334 3.39054 11.9437 3.18858 11.6441L2.83946 11.15C1.8512 9.74277 2.53448 8.16988 3.99893 7.69833L4.32192 7.59433C4.67841 7.47955 5.02276 7.18349 5.05239 6.81015L5.12431 5.90386C5.24105 4.43278 6.58341 3.58866 7.9953 4.01788L8.45225 4.1568C8.89268 4.32867 9.23774 4.1823 9.47813 3.92047L9.97227 3.29006Z" fill="url(#paint16_radial_7155_2965)"/>
<path d="M11.68 19.517C15.759 19.517 19.0658 16.2103 19.0658 12.1313C19.0658 8.05221 15.759 4.74548 11.68 4.74548C7.60091 4.74548 4.29419 8.05221 4.29419 12.1313C4.29419 16.2103 7.60091 19.517 11.68 19.517Z" fill="url(#paint17_radial_7155_2965)"/>
<defs>
<linearGradient id="paint0_linear_7155_2965" x1="17.4162" y1="5.72102" x2="6.86308" y2="19.1853" gradientUnits="userSpaceOnUse">
<stop stop-color="#FC8B23"/>
<stop offset="0.75886" stop-color="#E67639"/>
</linearGradient>
<radialGradient id="paint1_radial_7155_2965" cx="0" cy="0" r="1" gradientUnits="userSpaceOnUse" gradientTransform="translate(13.4567 3.36319) rotate(138.155) scale(2.59781 2.29208)">
<stop offset="0.300161" stop-color="#FFA13A"/>
<stop offset="1" stop-color="#FFA13A" stop-opacity="0"/>
</radialGradient>
<radialGradient id="paint2_radial_7155_2965" cx="0" cy="0" r="1" gradientUnits="userSpaceOnUse" gradientTransform="translate(6.69774 2.54309) rotate(67.8105) scale(4.12992 3.64387)">
<stop offset="0.300161" stop-color="#FF942A"/>
<stop offset="1" stop-color="#FF942A" stop-opacity="0"/>
</radialGradient>
<radialGradient id="paint3_radial_7155_2965" cx="0" cy="0" r="1" gradientUnits="userSpaceOnUse" gradientTransform="translate(17.7893 6.39603) rotate(-164.745) scale(1.64665 2.28001)">
<stop offset="0.300161" stop-color="#FFA13D"/>
<stop offset="1" stop-color="#FFA13D" stop-opacity="0"/>
</radialGradient>
<radialGradient id="paint4_radial_7155_2965" cx="0" cy="0" r="1" gradientUnits="userSpaceOnUse" gradientTransform="translate(21.111 8.79343) rotate(154.195) scale(2.91959 2.15633)">
<stop offset="0.300161" stop-color="#FFA13D"/>
<stop offset="1" stop-color="#FFA13D" stop-opacity="0"/>
</radialGradient>
<radialGradient id="paint5_radial_7155_2965" cx="0" cy="0" r="1" gradientUnits="userSpaceOnUse" gradientTransform="translate(21.7464 13.7326) rotate(-173.379) scale(3.25675 1.83529)">
<stop offset="0.300161" stop-color="#FFA13D"/>
<stop offset="1" stop-color="#FFA13D" stop-opacity="0"/>
</radialGradient>
<radialGradient id="paint6_radial_7155_2965" cx="0" cy="0" r="1" gradientUnits="userSpaceOnUse" gradientTransform="translate(12.9553 20.9918) rotate(-105.961) scale(1.98121 2.36136)">
<stop offset="0.300161" stop-color="#FFA13D"/>
<stop offset="0.837828" stop-color="#FFA13D" stop-opacity="0.143262"/>
<stop offset="1" stop-color="#FFA13D" stop-opacity="0"/>
</radialGradient>
<radialGradient id="paint7_radial_7155_2965" cx="0" cy="0" r="1" gradientUnits="userSpaceOnUse" gradientTransform="translate(17.7537 18.6933) rotate(135) scale(3.67663 2.6279)">
<stop offset="0.349216" stop-color="#FFA13D"/>
<stop offset="1" stop-color="#FFA13D" stop-opacity="0"/>
</radialGradient>
<radialGradient id="paint8_radial_7155_2965" cx="0" cy="0" r="1" gradientUnits="userSpaceOnUse" gradientTransform="translate(7.79417 4.29739) rotate(75.2564) scale(2.34034 2.72838)">
<stop offset="0.349216" stop-color="#FFA13D"/>
<stop offset="1" stop-color="#FFA13D" stop-opacity="0"/>
</radialGradient>
<radialGradient id="paint9_radial_7155_2965" cx="0" cy="0" r="1" gradientUnits="userSpaceOnUse" gradientTransform="translate(18.8291 17.5165) rotate(-43.9639) scale(2.95414 2.84597)">
<stop stop-color="#E0762A"/>
<stop offset="0.626569" stop-color="#E0762A" stop-opacity="0.292889"/>
<stop offset="1" stop-color="#E0762A" stop-opacity="0"/>
</radialGradient>
<radialGradient id="paint10_radial_7155_2965" cx="0" cy="0" r="1" gradientUnits="userSpaceOnUse" gradientTransform="translate(14.5394 4.7133) rotate(1.69135) scale(1.78354 1.71823)">
<stop stop-color="#E0762A"/>
<stop offset="0.626569" stop-color="#E0762A" stop-opacity="0.292889"/>
<stop offset="1" stop-color="#E0762A" stop-opacity="0"/>
</radialGradient>
<radialGradient id="paint11_radial_7155_2965" cx="0" cy="0" r="1" gradientUnits="userSpaceOnUse" gradientTransform="translate(9.42635 4.41263) rotate(-10.1755) scale(1.99998 1.92675)">
<stop stop-color="#E0762A"/>
<stop offset="0.626569" stop-color="#E0762A" stop-opacity="0.292889"/>
<stop offset="1" stop-color="#E0762A" stop-opacity="0"/>
</radialGradient>
<radialGradient id="paint12_radial_7155_2965" cx="0" cy="0" r="1" gradientUnits="userSpaceOnUse" gradientTransform="translate(4.83313 8.04683) rotate(-39.6442) scale(2.29425 2.21024)">
<stop stop-color="#E0762A"/>
<stop offset="0.626569" stop-color="#E0762A" stop-opacity="0.292889"/>
<stop offset="1" stop-color="#E0762A" stop-opacity="0"/>
</radialGradient>
<radialGradient id="paint13_radial_7155_2965" cx="0" cy="0" r="1" gradientUnits="userSpaceOnUse" gradientTransform="translate(5.138 16.8232) rotate(-127.747) scale(2.26479 2.18186)">
<stop stop-color="#E0762A"/>
<stop offset="1" stop-color="#E0762A" stop-opacity="0"/>
</radialGradient>
<radialGradient id="paint14_radial_7155_2965" cx="0" cy="0" r="1" gradientUnits="userSpaceOnUse" gradientTransform="translate(2.04738 9.16892) rotate(25.2777) scale(2.29988 2.77974)">
<stop stop-color="#F0851D"/>
<stop offset="1" stop-color="#F0851D" stop-opacity="0"/>
</radialGradient>
<radialGradient id="paint15_radial_7155_2965" cx="0" cy="0" r="1" gradientUnits="userSpaceOnUse" gradientTransform="translate(15.7758 20.7965) rotate(-142.487) scale(2.68142 2.52969)">
<stop offset="0.336586" stop-color="#E3745B"/>
<stop offset="0.689689" stop-color="#E3745B" stop-opacity="0.317051"/>
<stop offset="1" stop-color="#E3745B" stop-opacity="0"/>
</radialGradient>
<radialGradient id="paint16_radial_7155_2965" cx="0" cy="0" r="1" gradientUnits="userSpaceOnUse" gradientTransform="translate(11.6799 12.2308) rotate(90) scale(7.91348 7.60806)">
<stop offset="0.918092" stop-color="#EB7922"/>
<stop offset="1" stop-color="#EB7922" stop-opacity="0"/>
</radialGradient>
<radialGradient id="paint17_radial_7155_2965" cx="0" cy="0" r="1" gradientUnits="userSpaceOnUse" gradientTransform="translate(15.8713 7.85237) rotate(117.739) scale(13.1793 16.2752)">
<stop offset="0.17178" stop-color="#FFD13D"/>
<stop offset="0.959877" stop-color="#D89A29"/>
</radialGradient>
</defs>
</svg>
